<svg width="24" height="25" viewBox="0 0 24 25" fill="none" xmlns="http://www.w3.org/2000/svg">
<g clip-path="url(#clip0_1_1229)">
<path d="M4.66964 0.877809C4.12289 0.524512 3.46617 0.417731 2.85019 0.563137L13.6751 11.3881L17.1835 7.87972L4.66964 0.877809Z" fill="white"/>
<path d="M1.50666 1.44287C1.20474 1.84426 1.03098 2.33711 1.03098 2.85845V22.1409C1.03098 22.6622 1.20479 23.155 1.50666 23.5564L12.5634 12.4997L1.50666 1.44287Z" fill="white"/>
<path d="M21.7622 10.4416L18.6091 8.67737L14.7867 12.4997L18.6093 16.3223L21.7627 14.5579C22.5182 14.1347 22.9692 13.3653 22.9692 12.4997C22.9692 11.6342 22.5182 10.8649 21.7622 10.4416Z" fill="white"/>
<path d="M13.675 13.6115L2.85074 24.4357C3.02821 24.4775 3.20882 24.5 3.38943 24.5C3.83577 24.5 4.28057 24.3731 4.66958 24.1217L17.1836 17.1199L13.675 13.6115Z" fill="white"/>
</g>
<defs>
<clipPath id="clip0_1_1229">
<rect width="24" height="24" fill="white" transform="translate(0 0.5)"/>
</clipPath>
</defs>
</svg>
